<?xml version="1.0" encoding="UTF-8" standalone="no"?>
<!-- Created with Inkscape (http://www.inkscape.org/) -->

<svg
   xmlns:dc="http://purl.org/dc/elements/1.1/"
   xmlns:cc="http://creativecommons.org/ns#"
   xmlns:rdf="http://www.w3.org/1999/02/22-rdf-syntax-ns#"
   xmlns:svg="http://www.w3.org/2000/svg"
   xmlns="http://www.w3.org/2000/svg"
   xmlns:sodipodi="http://sodipodi.sourceforge.net/DTD/sodipodi-0.dtd"
   xmlns:inkscape="http://www.inkscape.org/namespaces/inkscape"
   width="600"
   height="600"
   viewBox="0 0 600.00001 600.00002"
   id="svg2"
   version="1.1"
   inkscape:version="0.91 r"
   sodipodi:docname="ferre.svg"
   inkscape:export-filename="C:\Users\Cresh\Desktop\header.png"
   inkscape:export-xdpi="67.5"
   inkscape:export-ydpi="67.5">
  <defs
     id="defs4" />
  <sodipodi:namedview
     id="base"
     pagecolor="#ffffff"
     bordercolor="#666666"
     borderopacity="1.0"
     inkscape:pageopacity="0.0"
     inkscape:pageshadow="2"
     inkscape:zoom="0.69037977"
     inkscape:cx="469.88755"
     inkscape:cy="459.96436"
     inkscape:document-units="px"
     inkscape:current-layer="layer1"
     showgrid="false"
     units="px"
     showguides="false"
     inkscape:window-width="1366"
     inkscape:window-height="710"
     inkscape:window-x="0"
     inkscape:window-y="0"
     inkscape:window-maximized="1">
    <inkscape:grid
       type="xygrid"
       id="grid4708" />
  </sodipodi:namedview>
  <metadata
     id="metadata7">
    <rdf:RDF>
      <cc:Work
         rdf:about="">
        <dc:format>image/svg+xml</dc:format>
        <dc:type
           rdf:resource="http://purl.org/dc/dcmitype/StillImage" />
        <dc:title></dc:title>
      </cc:Work>
    </rdf:RDF>
  </metadata>
  <g
     inkscape:label="Layer 1"
     inkscape:groupmode="layer"
     id="layer1"
     transform="translate(0,-452.36213)">
    <rect
       style="opacity:1;fill:#2196f3;fill-opacity:1;stroke:none;stroke-opacity:1"
       id="rect4138"
       width="815.41913"
       height="165.51154"
       x="79.095161"
       y="514.16339"
       inkscape:export-xdpi="90"
       inkscape:export-ydpi="90" />
    <text
       xml:space="preserve"
       style="font-style:normal;font-weight:normal;font-size:90px;line-height:125%;font-family:sans-serif;letter-spacing:0px;word-spacing:0px;fill:#000000;fill-opacity:1;stroke:none;stroke-width:1px;stroke-linecap:butt;stroke-linejoin:miter;stroke-opacity:1"
       x="309.9024"
       y="651.69513"
       id="text4704"
       sodipodi:linespacing="125%"
       inkscape:export-xdpi="90"
       inkscape:export-ydpi="90"><tspan
         sodipodi:role="line"
         id="tspan4706"
         x="309.9024"
         y="651.69513"
         style="font-style:normal;font-variant:normal;font-weight:normal;font-stretch:normal;font-size:125px;font-family:'Roboto Slab';-inkscape-font-specification:'Roboto Slab'">Ferreweb</tspan></text>
    <path
       style="fill:#055e8a;fill-opacity:1;fill-rule:evenodd;stroke:none;stroke-width:1px;stroke-linecap:butt;stroke-linejoin:miter;stroke-opacity:1"
       d="m 94.157351,650.45133 44.246079,23.1324 45.131,-22.10428 0,-44.7227 -44.51808,-22.39599 -44.58676,22.43057 z"
       id="path4739"
       inkscape:connector-curvature="0"
       inkscape:export-xdpi="90"
       inkscape:export-ydpi="90" />
    <path
       style="fill:#2c2b2c;fill-opacity:1;fill-rule:evenodd;stroke:none;stroke-width:1px;stroke-linecap:butt;stroke-linejoin:miter;stroke-opacity:1"
       d="m 139.14087,584.54118 44.24608,23.1324 45.131,-22.10429 0,-44.72266 -44.51808,-22.39596 -44.58676,22.43054 z"
       id="path4739-0"
       inkscape:connector-curvature="0"
       inkscape:export-xdpi="90"
       inkscape:export-ydpi="90" />
    <path
       style="fill:#62a3c4;fill-opacity:1;fill-rule:evenodd;stroke:none;stroke-width:1px;stroke-linecap:butt;stroke-linejoin:miter;stroke-opacity:1"
       d="m 183.09197,651.11114 44.24608,23.13237 45.131,-22.10426 0,-44.72268 -44.51807,-22.39593 -44.58677,22.43051 z"
       id="path4739-05"
       inkscape:connector-curvature="0"
       inkscape:export-xdpi="90"
       inkscape:export-ydpi="90" />
    <path
       style="fill:#ffffff;fill-opacity:1;fill-rule:evenodd;stroke:none;stroke-width:1px;stroke-linecap:butt;stroke-linejoin:miter;stroke-opacity:1"
       d="m 125.45735,666.50694 13.86377,-20.56211 c 0,0 23.00797,1.54211 21.82807,-21.84731 0,0 0.20817,-4.28889 -5.79539,-2.91553 l -6.87506,10.37604 -15.2215,-7.65758 6.72861,-10.15504 c 0,0 0.2202,-5.06949 -5.97426,-3.27032 0,0 -22.48996,9.7741 -10.91403,27.24488 l -13.68413,20.65247 z"
       id="path4764"
       inkscape:connector-curvature="0"
       sodipodi:nodetypes="ccccccccccc"
       inkscape:export-xdpi="90"
       inkscape:export-ydpi="90" />
    <g
       id="g4770"
       transform="matrix(0.71121427,0,0,0.61971978,126.80404,-80.524978)"
       inkscape:export-xdpi="90"
       inkscape:export-ydpi="90">
      <path
         inkscape:connector-curvature="0"
         id="path4766"
         d="m 204.88494,1160.1963 -37.74196,0 0,-28.6175 37.74196,0 z"
         style="fill:#ffffff;fill-opacity:1;fill-rule:evenodd;stroke:none;stroke-width:1px;stroke-linecap:butt;stroke-linejoin:miter;stroke-opacity:1" />
      <path
         inkscape:connector-curvature="0"
         id="path4768"
         d="m 165.26067,1156.7294 -7.29529,0 0,-5.6575 -46.15388,0 -4.54095,4.5409 -15.207372,-4.0748 0,-10.888 15.947672,-4.2731 4.26023,4.2602 45.6943,0 0,-5.3469 7.1464,0 z"
         style="fill:#ffffff;fill-opacity:1;fill-rule:evenodd;stroke:none;stroke-width:1px;stroke-linecap:butt;stroke-linejoin:miter;stroke-opacity:1" />
    </g>
    <g
       id="g4781"
       transform="matrix(0.71121427,0,0,0.61971978,175.49961,-80.703158)"
       inkscape:export-xdpi="90"
       inkscape:export-ydpi="90">
      <path
         id="path4774"
         transform="translate(0,452.36213)"
         d="m 4.0976562,532.91211 -8.1953124,40.9707 6.1464843,8.44922 c -19.2042871,18.1801 -15.3632811,43.5293 -15.3632811,43.5293 6.6574861,11.5226 13.82617175,0.25586 13.82617175,0.25586 C -1.0246243,605.37659 13.1875,590.6543 13.1875,590.6543 l 16.259766,-16.25977 -8.707032,-41.22461 -5.632812,0 0.767578,32.51758 -6.4003906,0 0,-32.77539 -5.3769532,0 z m 8.7050778,39.1875 a 2.0395424,1.9115138 0 0 1 2.039063,1.91016 2.0395424,1.9115138 0 0 1 -2.039063,1.91211 2.0395424,1.9115138 0 0 1 -2.039062,-1.91211 2.0395424,1.9115138 0 0 1 2.039062,-1.91016 z"
         style="fill:#ffffff;fill-opacity:1;fill-rule:evenodd;stroke:none;stroke-width:1px;stroke-linecap:butt;stroke-linejoin:miter;stroke-opacity:1"
         inkscape:connector-curvature="0" />
      <path
         inkscape:connector-curvature="0"
         id="path4779"
         d="m 13.121668,1046.0092 9.602145,-9.6022 c 0,0 13.699057,8.3219 15.491457,42.1214 0,0 -8.193828,11.5226 -15.619486,0 0,0 2.816628,-16.3876 -9.474116,-32.5192 z"
         style="fill:#ffffff;fill-opacity:1;fill-rule:evenodd;stroke:none;stroke-width:1px;stroke-linecap:butt;stroke-linejoin:miter;stroke-opacity:1" />
    </g>
  </g>
</svg>
